<svg xmlns="http://www.w3.org/2000/svg" xmlns:xlink="http://www.w3.org/1999/xlink" version="1.1" width="175" 
        height="50" viewBox="0 0 3146.387043189369 892.9609634551496">
  <g transform="scale(7.319352159468439) translate(10, 10)">
    <defs id="SvgjsDefs3760"></defs><g id="SvgjsG3761" featureKey="symbolContainer" transform="matrix(1,0,0,1,0,0)" fill="#b100ff"><rect width="92" height="102" rx="8"></rect></g><g id="SvgjsG3762" featureKey="monogramFeature-0" transform="matrix(1.2701671152922847,0,0,1.2701671152922847,19.999999545752843,8.979407558569875)" fill="#f7fbfc"><path d="M34.38 4.920000000000002 c-0.06 0 -0.12 -0.06 -0.12 -0.12 s0.06 -0.06 0.12 -0.06 l0.06 0 c0.06 0 0.06 0 0.06 0.06 s-0.06 0.12 -0.12 0.12 z M30.96 5.340000000000003 l-0.12 -0.12 l0 -0.06 l0.12 -0.06 c0.12 0 0.12 0.06 0.12 0.12 c-0.06 0.06 -0.06 0.12 -0.12 0.12 z M32.34 5.159999999999997 l-0.12 0 l0 -0.06 c0 -0.06 0.18 -0.12 0.42 -0.12 l0.24 0 l-0.06 0.06 c-0.12 0.12 -0.36 0.12 -0.48 0.12 z M36.18 4.979999999999997 l-0.18 0 c0 -0.06 0.06 -0.12 0.12 -0.12 l0.12 -0.06 l0.06 0.06 c0 0.06 -0.06 0.12 -0.12 0.12 z M5.82 61.38 l-0.06 0 l-0.48 -0.24 c-0.12 -0.12 -0.24 -0.18 -0.3 -0.18 c0 0 -0.12 0 -0.18 -0.12 c-0.12 -0.12 -0.18 -0.12 -0.24 -0.12 l-0.24 0.06 l-0.24 0.12 l-0.3 -0.12 c-0.42 -0.24 -1.56 -1.2 -1.56 -1.32 c0 -0.06 -0.12 -0.24 -0.24 -0.36 c-0.36 -0.36 -0.78 -1.62 -0.78 -2.28 c0 -0.18 0.06 -0.3 0.12 -0.36 l0.12 -0.12 l-0.24 0.06 l-0.06 -0.24 l0.06 -1.14 c0.12 -1.68 0.12 -2.04 0.3 -2.04 l0.06 -0.12 l-0.06 -0.06 c-0.06 -0.06 -0.06 -0.18 -0.06 -0.36 c0 -0.12 0 -0.3 0.06 -0.36 l0.06 -0.36 l-0.06 -0.54 l0.06 -0.18 l0.06 0 l0.12 -0.06 l-0.12 -0.36 l0.06 -0.06 c0.06 0 0.12 -0.12 0.12 -0.3 l0 -0.18 l-0.12 0 l0 -0.06 c0 -0.12 0 -0.24 0.12 -0.3 l0.12 -0.24 l-0.06 -0.48 c0 -0.42 0.06 -0.84 0.18 -0.84 c0.06 0 0.12 -0.06 0.18 -0.18 l0 -0.06 c0 -0.12 0 -0.18 -0.06 -0.18 s-0.12 0.06 -0.12 0.18 l-0.06 0.06 l-0.06 -0.06 c0 -0.12 0.06 -0.3 0.18 -0.42 l0.06 -0.36 l-0.06 -0.36 l0.06 -0.24 c0.12 -0.06 0.24 -0.24 0.24 -0.42 c0 -0.12 0.06 -0.42 0.12 -0.54 c0 -0.18 0 -0.3 -0.12 -0.36 l-0.06 -0.06 l0.12 -0.42 c0.12 -0.24 0.18 -0.6 0.18 -0.78 s0.06 -0.36 0.12 -0.36 l0.06 -0.06 l-0.06 -0.06 c0 -0.12 0 -0.18 0.06 -0.18 l0.12 -0.24 c0 -0.12 0 -0.18 -0.06 -0.18 s-0.12 -0.06 -0.12 -0.12 s0.06 -0.06 0.12 -0.06 s0.3 -0.84 0.3 -1.32 l0 -0.12 c0 -0.12 -0.12 -0.42 -0.3 -0.6 c-0.42 -0.54 -0.6 -1.08 -0.72 -1.8 l0 -0.36 c0 -0.54 0.18 -0.66 1.08 -1.02 c0.78 -0.36 0.78 -0.36 1.08 -1.38 c0.18 -0.54 0.24 -1.08 0.24 -1.14 l0 -0.12 l0.06 -0.18 c0.06 -0.06 0.18 -0.42 0.24 -0.78 c0 -0.3 0.12 -0.78 0.12 -0.96 l0.12 -0.54 c0 -0.12 0.12 -0.36 0.18 -0.54 l0.12 -0.42 l-0.12 -0.42 l0.12 0.06 l0.12 0 c0.06 0 0.06 -0.06 0.06 -0.42 s0.06 -0.66 0.18 -0.78 s0.18 -0.3 0.18 -0.42 l0 -0.24 c0 -0.36 0.06 -0.96 0.18 -1.02 c0.12 0 0.3 -0.48 0.3 -0.78 c0 -0.06 0.06 -0.18 0.18 -0.3 l0.12 -0.06 l-0.18 0 l0.06 -0.12 l0 -0.3 l0.24 -0.3 l0.12 -0.3 l-0.06 -0.18 c0 -0.18 0.06 -0.48 0.18 -0.84 l1.68 -6.54 c0.12 -0.24 0.3 -0.84 0.42 -1.26 c0.12 -0.48 0.3 -0.9 0.36 -0.96 l0 -0.06 c0 -0.06 0 -0.12 -0.12 -0.12 l-0.12 0 l-1.14 0.36 l-1.02 0.24 l-0.36 -0.18 l-0.54 0.12 c-0.48 0.18 -1.14 0.48 -1.14 0.6 l0.06 0 c0.12 0 0.42 -0.12 0.78 -0.24 l0.84 -0.18 l-0.18 0.06 c-0.12 0.06 -0.84 0.36 -1.56 0.6 c-0.72 0.3 -1.26 0.54 -1.26 0.6 s0.06 0.18 0.18 0.3 c0.18 0.18 0.3 0.54 0.3 0.78 l-0.06 0.24 c-0.06 0.06 -0.06 0.12 -0.18 0.12 l-0.24 -0.06 c-0.24 -0.06 -0.36 -0.18 -0.36 -0.24 l-0.18 0 c-0.06 0 -0.12 -0.06 -0.18 -0.12 c-0.06 -0.18 -0.3 -0.36 -0.54 -0.48 l-1.44 -1.08 c-0.48 -0.48 -1.08 -1.86 -1.08 -2.64 s0.36 -1.02 1.74 -1.62 c1.02 -0.36 1.8 -0.66 2.04 -0.66 c0.06 0 0.06 0 0.06 0.06 l0 0.06 l0.12 0 c0.12 0 0.3 0 0.48 -0.06 c0.12 0 0.18 -0.06 0.18 -0.12 l-0.12 -0.06 l-0.48 0.12 l-0.06 -0.06 l0.6 -0.24 l0.42 -0.12 l0.24 0.12 l0.06 0.06 l0 -0.12 c0 -0.12 0.12 -0.18 0.24 -0.24 l0.18 0 l-0.12 0.24 l0.12 -0.06 c0.12 0 0.3 -0.06 0.42 -0.12 l0.18 -0.06 l-0.12 0 c-0.12 0 -0.18 0 -0.18 -0.06 s0.24 -0.18 0.6 -0.3 c0.24 -0.12 0.42 -0.12 0.54 -0.12 c0.06 0 0.12 0 0.18 0.06 l0.12 0.06 l0.42 -0.12 c0.24 -0.06 0.48 -0.06 0.6 -0.06 l0.18 0.06 l-0.06 -0.12 c0 -0.06 0.06 -0.06 0.12 -0.12 l0.18 -0.06 l0.12 0.12 c0.06 0 0.12 -0.06 0.18 -0.12 c0.06 -0.18 0.24 -0.24 0.54 -0.3 c0.24 0 0.48 -0.06 0.54 -0.12 s0.3 -0.18 0.54 -0.18 c0.3 -0.06 0.48 -0.12 0.48 -0.18 s0.12 -0.06 0.24 -0.06 l0.12 0 c0.12 0 0.18 0 0.24 -0.06 c0 -0.06 0.18 -0.12 0.42 -0.18 l0.3 -0.06 c0.06 0 0.06 0 0.06 0.06 s0.06 0.06 0.06 0.06 l0.06 0 l0.06 -0.06 l0 -0.06 c0 -0.12 0.06 -0.12 0.24 -0.18 c0.18 0 0.3 0.06 0.3 0.12 c0.06 0 0.12 -0.06 0.18 -0.12 c0.18 -0.18 0.54 -0.36 1.38 -0.6 c0.66 -0.18 1.26 -0.3 1.38 -0.3 l0.36 0 c0.6 0 1.08 -0.06 1.08 -0.18 l0 -0.06 l0.18 0 c0.12 0 0.24 0 0.24 -0.06 s0.12 -0.12 0.3 -0.12 l0.18 0 c0.12 0 0.18 -0.06 0.18 -0.12 l0 -0.06 c0 -0.18 0.3 -0.3 1.02 -0.48 c0.3 -0.06 0.9 -0.18 1.26 -0.3 c0.42 -0.12 0.9 -0.24 1.14 -0.24 c0.24 -0.06 0.42 -0.12 0.48 -0.18 s1.14 -0.36 2.22 -0.54 l0.42 -0.06 c0.06 0 0.12 0 0.12 0.06 s0 0.12 0.06 0.12 s0.12 -0.12 0.12 -0.18 c0 -0.12 0.12 -0.18 0.18 -0.18 c0.12 0 0.18 0.06 0.24 0.12 c0 0.06 -0.06 0.06 -0.12 0.12 l-0.12 0 l0.3 0.06 l0.3 -0.06 c0 -0.06 0.24 -0.12 0.42 -0.18 c0.24 0 0.3 -0.06 0.3 -0.18 l0 -0.06 c0 -0.06 0.06 -0.12 0.3 -0.18 c0.18 0 0.3 0.06 0.3 0.12 l0.06 0.06 l0.12 -0.06 c0.24 -0.24 1.74 -0.48 4.38 -0.78 c0.9 -0.12 1.44 -0.12 1.68 -0.12 c0.18 0 0.24 0 0.24 0.06 c0 0.12 0.06 0.18 0.18 0.18 s0.18 -0.06 0.18 -0.12 l0 -0.06 c0 -0.12 0.54 -0.36 0.72 -0.36 l0.06 0 c0.06 0.06 0.3 0.12 0.48 0.18 c0.24 0.06 0.48 0.12 0.48 0.18 c0 0 0.12 0.06 0.3 0.06 l0.78 0 c0.24 0 0.48 0.06 0.48 0.12 l0 0.06 l-0.24 0 l0.24 0.12 l0.18 -0.06 c0.12 0 0.3 0 0.36 0.12 c0.12 0.06 0.3 0.06 0.36 0.06 l0.42 0.06 c0.18 0 1.56 1.08 1.56 1.32 c0 0.12 -0.06 0.24 -0.12 0.3 s-0.12 0.06 -0.12 0.12 l0.3 0.54 l-0.06 0.06 l-0.18 -0.06 l-0.24 -0.06 l-0.66 -0.18 l0.42 0.42 c0 0.06 -0.12 0.06 -0.36 0.12 l-0.24 0 l0.36 0.24 l0 0.06 l-0.24 -0.06 c-0.24 -0.06 -0.54 -0.06 -0.72 -0.06 s-0.48 0 -0.66 -0.06 c-0.18 0 -0.36 0 -0.42 0.12 l-0.06 0.06 l-0.24 -0.12 l0.12 -0.06 c0.12 0 0.18 -0.06 0.18 -0.06 c0 -0.12 -1.02 -0.18 -1.86 -0.18 l-0.6 0 c-0.6 0 -0.72 0.06 -0.78 0.18 l-0.36 0.18 c-0.12 0 -0.18 0 -0.18 -0.06 l0.12 -0.24 l-0.12 0 c-0.12 0 -0.18 0.06 -0.18 0.12 s-0.36 0.24 -0.66 0.3 c-0.06 0 -0.06 0 -0.06 0.06 l0 0.06 l0.12 0.06 l0.24 -0.06 c0.18 0 0.42 0 0.42 0.06 c0 0.18 -0.72 0.42 -1.26 0.42 l-2.76 0.36 l-0.3 -0.06 l-0.18 -0.12 l-0.06 0.12 c0 0.12 -0.12 0.18 -0.24 0.18 s-0.6 0.12 -1.02 0.3 c-0.66 0.18 -1.2 0.24 -1.44 0.24 l-0.06 0 l0.06 -0.06 l0.06 -0.18 l-0.06 0 c-0.12 0 -0.48 0.18 -0.48 0.3 s-0.12 0.12 -0.24 0.12 s-0.3 -0.06 -0.36 -0.12 c0 -0.06 -0.18 -0.12 -0.36 -0.12 c-0.12 0 -0.3 0.12 -0.36 0.18 l-0.06 0.12 c0 0.06 0.06 0.06 0.18 0.06 l0.12 0 l-1.02 0.42 l-0.24 -0.06 l-0.72 0.18 c-0.36 0.18 -0.66 0.3 -0.78 0.3 c-0.06 0 -0.12 0.06 -0.12 0.12 s-0.24 0.12 -0.54 0.12 s-0.78 0.12 -1.02 0.18 c-1.08 0.36 -1.68 0.48 -1.86 0.48 c-0.06 0 -0.06 0 -0.06 -0.06 c0 -0.12 -0.12 -0.12 -0.24 -0.12 c-0.18 0 -0.3 0.06 -0.3 0.12 s0.12 0.12 0.18 0.12 l0.12 0 l-0.06 0.06 c-0.06 0.06 -0.3 0.18 -0.48 0.18 c-0.24 0 -0.6 0.12 -1.74 0.6 c-0.18 0.06 -0.54 0.18 -0.72 0.18 c-0.48 0.12 -0.9 0.3 -0.9 0.42 c0 0.06 0.06 0.12 0.12 0.12 l0.6 -0.18 c0.18 -0.12 0.66 -0.3 1.02 -0.36 l0.48 -0.06 l0.06 0 c0 0.06 -0.42 0.24 -1.14 0.42 c-0.54 0.18 -1.02 0.36 -1.14 0.36 c-0.06 0.06 -0.18 0.36 -0.24 0.72 c0 0.3 -0.18 0.9 -0.3 1.32 s-0.36 1.14 -0.48 1.68 c-0.18 0.48 -0.36 1.14 -0.54 1.5 c-0.12 0.3 -0.18 0.66 -0.18 0.78 c0 0.06 -0.06 0.18 -0.12 0.18 s-0.06 0.06 -0.06 0.12 l-0.18 0.9 c0 0.06 -0.06 0.36 -0.18 0.54 c-0.18 0.3 -0.3 0.84 -0.42 1.44 c0 0.06 0 0.18 -0.06 0.24 l0 0.3 l0.06 0.06 l-0.06 0.06 c-0.06 0 -0.12 0.12 -0.12 0.24 s-0.06 0.3 -0.12 0.36 l-0.12 0.24 l0.06 0.06 c0.06 0 0.06 0.06 0.06 0.18 l0 0.18 c-0.06 0.3 -0.06 0.42 -0.12 0.42 l-0.18 -0.06 c-0.12 0 -0.18 0.3 -0.24 0.78 c-0.06 0.12 -0.12 0.36 -0.18 0.42 c-0.18 0.42 -0.48 1.86 -0.48 2.16 c0 0.18 -0.06 0.36 -0.12 0.42 s-0.12 0.06 -0.12 0.12 l0.12 0 c0.12 0 0.18 0.06 0.18 0.12 c-0.06 0.06 -0.12 0.12 -0.18 0.12 s-0.18 0.18 -0.3 0.48 l-0.18 0.72 c-0.06 0.06 -0.12 0.36 -0.12 0.6 c-0.06 0.3 -0.12 0.72 -0.24 1.08 l-0.12 0.6 c0.06 0 0.12 -0.06 0.18 -0.12 l0.12 -0.06 l-0.06 0.36 l-0.42 -0.12 l0 0.18 l-0.18 1.08 l-0.24 1.08 c0 0.06 0 0.06 0.06 0.06 l0.3 -0.54 l0 0.3 c0 0.12 0 0.18 0.12 0.18 l0.9 -0.24 c0.36 -0.12 0.96 -0.24 1.32 -0.24 c0.3 -0.06 0.54 -0.06 0.54 -0.12 s0.06 -0.12 0.18 -0.12 l0.12 -0.06 l0.12 0.06 c0 0.06 0.06 0.06 0.12 0.06 l0.66 -0.12 c0.42 -0.12 0.84 -0.24 1.02 -0.24 l0.96 -0.24 l1.38 -0.3 c0.36 0 0.72 -0.12 0.84 -0.18 c0.18 -0.12 0.42 -0.18 0.6 -0.18 s0.3 0 0.3 0.06 l-0.36 0.24 l0.36 -0.06 c2.52 -0.54 3.3 -0.72 3.54 -0.72 c0.06 0 0.06 0 0.06 0.06 l0 0.12 l0.12 0.06 c0.06 0 0.12 -0.06 0.12 -0.12 l0.06 -0.12 l0.06 0.12 l0.12 0.06 l0 -0.06 c0 -0.12 0.42 -0.3 0.6 -0.3 l0.36 0.12 l0.78 -0.12 l0.12 0.06 l-0.12 0.36 c0 0.06 0.06 0.06 0.18 0.06 l-0.48 0.3 l0.06 0 c0 0.06 -0.54 0.36 -0.72 0.36 c-0.12 0.06 -0.3 0.12 -0.42 0.24 c-0.06 0.06 -0.12 0.06 -0.12 0.12 l0.36 0.18 l-0.42 0.3 l-0.6 0.3 c0 0.06 0.06 0.12 0.12 0.12 c0.12 0.06 0.12 0.06 0.12 0.12 l-0.12 0 c-0.06 0 -0.18 0 -0.3 -0.06 l-0.12 -0.06 c-0.24 0 -0.54 0.24 -0.54 0.42 c0 0.06 0 0.06 -0.06 0.06 l-0.12 -0.12 l-0.12 0.06 c-0.06 0 -0.24 0 -0.3 -0.06 l-0.18 -0.06 l-0.18 0.12 c0 0.06 0.06 0.06 0.18 0.12 c0.12 0 0.18 0 0.18 0.06 l-0.06 0.06 l-0.06 0.12 l0.3 0.18 l-0.18 0 l-0.36 0.18 c0 0.12 -0.18 0.24 -0.36 0.3 l-0.18 0.06 c-0.06 0 -0.06 -0.06 -0.06 -0.06 l0 -0.18 l-0.18 0.12 c-0.12 0.06 -0.24 0.18 -0.24 0.24 c-0.12 0.12 -0.66 0.3 -0.96 0.3 l-0.24 -0.06 c-0.06 0 -0.06 0 -0.06 -0.06 l0.12 -0.06 c0.06 -0.06 0.12 -0.06 0.12 -0.12 l-0.18 0 c-0.12 0 -0.18 0.06 -0.18 0.12 l0 0.18 c0 0.06 -0.06 0.12 -0.48 0.24 c-0.18 0.06 -0.3 0.12 -0.3 0.18 s0.06 0.12 0.24 0.12 l0.24 0.06 l-0.24 0.12 l-0.72 0.18 c-0.24 0 -0.72 0.12 -1.08 0.24 c-0.3 0.12 -0.84 0.3 -1.14 0.36 l-1.14 0.3 c-0.36 0.12 -0.48 0.12 -0.48 0.18 l0.24 0.06 c0 0.06 -0.24 0.06 -0.84 0.18 c-1.86 0.3 -3.96 1.02 -4.2 1.5 l-0.12 0.18 l0.06 -0.18 c0 -0.12 0 -0.18 -0.06 -0.18 l-0.06 0 c-0.06 0 -0.12 0.18 -0.18 0.3 c0 0.18 -0.06 0.3 -0.12 0.42 l-0.12 0.12 l0.06 0.06 l0.06 0.12 c0 0.12 -0.06 0.3 -0.18 0.36 l-0.06 0.06 l0.12 0.06 l0.06 0.06 l-0.12 0.54 l0.12 0.24 l0.06 -0.18 c0.06 -0.54 0.12 -0.6 0.18 -0.6 l-0.06 0.84 c-0.12 0.48 -0.18 0.66 -0.24 0.66 l-0.06 0 c-0.06 0 -0.12 0.12 -0.24 0.42 c0 0.3 -0.12 0.72 -0.18 0.96 l-0.12 0.84 l0.06 0.24 l0.24 -0.3 l-0.12 1.02 c-0.12 0.72 -0.24 1.14 -0.3 1.14 l-0.06 -0.12 c0 -0.06 0 -0.12 -0.06 -0.12 s-0.12 0.24 -0.18 0.54 c-0.06 0.54 -0.06 0.6 -0.12 0.66 l0 0.84 c0.06 0 0.12 -0.36 0.18 -0.78 s0.18 -0.84 0.24 -0.9 l0.06 -0.06 l0 0.06 c0 0.12 0 0.36 -0.12 0.84 l-0.06 0.72 l-0.12 0.12 c-0.12 0.06 -0.24 0.06 -0.3 0.06 l-0.06 0 l0.06 0.36 l-0.18 -0.12 l0.06 0.12 l0.12 0.18 l-0.18 0.12 l0.12 -0.18 c0 -0.06 -0.06 0 -0.12 0.06 l-0.06 0.12 l0.12 0.24 c-0.06 0.06 -0.06 0.24 -0.06 0.42 l0.06 0.18 c0 0.06 -0.06 0.06 -0.06 0.06 l-0.06 0 c-0.06 0 -0.06 0 -0.06 0.06 l0.06 0.3 l-0.12 0.18 l0.06 0.06 l0.06 0.12 l-0.06 0.18 l-0.06 0.48 c0 0.12 -0.06 0.3 -0.12 0.36 l-0.06 0.42 l0 0.18 c0 0.18 0 0.42 -0.06 0.42 c-0.06 0.06 -0.06 0.36 -0.06 0.78 l0.06 0.54 l-0.06 0.3 c-0.06 0.06 -0.06 0.12 -0.06 0.24 c0 0.18 0.12 0.36 0.18 0.36 l0.18 -0.06 l-0.3 0.54 l0 0.66 c0 0.06 0 0.06 0.06 0.06 l0.18 -0.06 l0.06 0.06 c0 0.06 -0.06 0.12 -0.12 0.12 s-0.12 0.24 -0.12 0.54 l0 0.3 c0 0.24 0.06 0.36 0.12 0.42 c0.12 0.06 0.36 0.36 0.54 0.66 s0.24 0.42 0.24 0.54 l-0.12 0.24 c-0.12 0.18 -0.3 0.24 -0.36 0.24 l-0.06 0 l0.12 0.12 l0.06 0.12 c0 0.06 0 0.06 -0.12 0.12 z M33.18 5.579999999999998 c0.18 -0.06 0.3 -0.06 0.3 -0.12 c-0.06 -0.06 -0.18 -0.06 -0.36 -0.06 s-0.3 0.06 -0.36 0.12 c0 0 0.18 0.06 0.42 0.06 z M31.5 5.700000000000003 l0.12 -0.06 l-0.06 0 c0 -0.06 -0.06 -0.06 -0.06 -0.06 s-0.06 0 -0.06 0.06 c0 0 0 0.06 0.06 0.06 z M38.52 5.219999999999999 l-0.18 0 c-0.12 0 -0.36 0 -0.48 -0.06 l-0.18 -0.06 l0.18 -0.06 l0.48 0.06 z M29.7 5.939999999999998 l0.12 -0.06 l-0.06 0 s0 -0.06 -0.06 -0.06 l-0.06 0.12 l0.06 0 z M36.06 5.399999999999999 l0.12 -0.06 l-0.18 0 l-0.06 0.06 l0.12 0 z M28.68 6.119999999999997 l0 -0.06 l-0.18 0 c0 0.06 0 0.06 0.12 0.06 l0.06 0 z M23.16 6.780000000000001 l-0.18 0 l0.18 -0.06 l0.6 -0.18 l-0.18 0.12 c-0.12 0.06 -0.3 0.12 -0.42 0.12 z M24.42 7.020000000000003 c0.12 0 0.18 -0.06 0.18 -0.12 l-0.12 -0.12 l-0.18 0.12 c0 0.06 0 0.12 0.12 0.12 z M23.28 7.32 l0.06 -0.06 c-0.06 0 -0.06 -0.06 -0.06 -0.06 l-0.12 0.06 c0 0.06 0 0.06 0.12 0.06 z M21.18 7.799999999999997 c0.24 0 0.42 -0.06 0.54 -0.12 l0.06 -0.12 l-0.12 0 l-0.72 0.24 l0.24 0 z M18.24 8.159999999999997 c-0.06 0 -0.12 -0.06 -0.12 -0.12 l0.12 -0.06 l0.06 0 c0.06 0 0.06 0 0.06 0.06 s-0.06 0.12 -0.12 0.12 z M20.1 8.100000000000001 l0 -0.06 l-0.12 0 l0 0.06 l0.12 0 z M18.54 8.340000000000003 l-0.12 0 l0 -0.06 l0.12 0 l0 0.06 z M19.14 8.520000000000003 l0 -0.12 c0 -0.06 -0.06 -0.12 -0.12 -0.12 l-0.06 0.06 l0.06 0.06 c0 0.06 0.06 0.12 0.12 0.12 z M29.22 7.799999999999997 l0.12 -0.06 l0 -0.06 c0 -0.06 -0.06 -0.06 -0.06 -0.06 l-0.18 0 l-0.12 0.12 c0 0.06 0.06 0.06 0.24 0.06 z M14.88 9.060000000000002 l-0.06 0 c-0.12 0 -0.12 0 -0.12 -0.06 l0.18 0 l0 0.06 z M13.56 9.600000000000001 l0 -0.12 c0 -0.12 0.12 -0.18 0.24 -0.18 c0.06 -0.06 0.3 -0.06 0.42 -0.12 l0.12 0 l-0.24 0.18 c-0.3 0.18 -0.48 0.24 -0.54 0.24 z M24.12 8.64 c0.18 -0.06 0.24 -0.06 0.24 -0.12 c0 -0.12 0 -0.12 -0.06 -0.12 l-0.24 0.12 l-0.06 0.12 l0.12 0 z M23.58 8.759999999999998 c0.06 0 0.18 -0.06 0.18 -0.12 l0 -0.06 l-0.12 0 c-0.06 0 -0.18 0.06 -0.18 0.12 z M16.08 9.299999999999997 c0.12 0 0.18 -0.06 0.18 -0.06 l-0.12 -0.06 l-0.18 0.06 z M25.44 8.520000000000003 c0.12 0 0.18 -0.06 0.18 -0.06 l-0.12 -0.06 l-0.18 0.06 c0 0.06 0.06 0.06 0.12 0.06 z M12.66 9.780000000000001 l-0.12 0 l0.06 -0.12 l0.24 -0.12 c0.06 0 0.06 0.06 0.06 0.12 s-0.06 0.12 -0.24 0.12 z M31.38 8.399999999999999 c0.18 0 0.36 -0.06 0.54 -0.24 c0.12 -0.12 0.18 -0.12 0.18 -0.18 l-0.12 0.06 c-0.12 0.06 -0.3 0.12 -0.48 0.12 c-0.12 0.06 -0.24 0.12 -0.24 0.18 s0.06 0.06 0.12 0.06 z M32.82 8.219999999999999 l0 -0.18 c0 -0.06 -0.12 -0.12 -0.24 -0.12 s-0.18 0.06 -0.18 0.12 s0.06 0.06 0.18 0.12 z M40.98 7.619999999999997 c-0.06 0 -0.12 -0.06 -0.12 -0.12 c0 -0.12 0 -0.18 0.06 -0.18 s0.12 0.06 0.12 0.18 l0 0.06 s0 0.06 -0.06 0.06 z M34.68 7.920000000000002 l0 -0.06 l-0.18 0 l-0.12 0.06 l0.3 0 z M22.08 9.299999999999997 l0.3 -0.06 c0.3 0 0.48 -0.06 0.48 -0.18 c0 -0.06 0.06 -0.12 0.24 -0.12 l0.12 -0.06 l0 -0.06 l-0.06 0 c-0.24 0 -1.02 0.3 -1.14 0.42 c0 0.06 0 0.06 0.06 0.06 z M30 8.46 l0.12 -0.06 l-0.12 -0.12 l-0.12 0 l-0.06 0.06 c0 0.06 0.06 0.12 0.18 0.12 z M30.66 8.399999999999999 l0.18 -0.06 c0 -0.12 -0.12 -0.12 -0.24 -0.12 l-0.06 0.12 z M11.34 10.079999999999998 l-0.06 0 l0 -0.06 l0.18 0 c0 0.06 0 0.06 -0.12 0.06 z M31.08 8.46 l0.06 -0.06 l-0.06 -0.06 l-0.12 0.06 c0 0.06 0 0.06 0.12 0.06 z M13.92 9.899999999999999 l0.12 -0.06 c0 -0.06 -0.06 -0.06 -0.12 -0.06 l-0.18 0.12 l0.18 0 z M27.18 9.299999999999997 c0.06 0 0.06 0 0.06 -0.12 s0.12 -0.18 0.54 -0.24 c0.6 -0.06 0.96 -0.18 0.96 -0.24 l0 -0.06 l-0.12 0 l-0.12 0.06 l-0.18 0.06 l-0.18 -0.06 l-0.12 0 c-0.06 0 -0.36 0 -0.6 0.06 c-0.3 0.06 -0.48 0.06 -0.48 0.18 l0.18 0.3 z M37.14 8.159999999999997 l0.12 -0.06 l-0.06 -0.06 c-0.06 -0.06 -0.24 -0.06 -0.36 -0.06 l-0.24 0.06 z M32.76 8.939999999999998 l-0.18 -0.18 l0.12 0 c0.12 0 0.18 -0.06 0.24 -0.12 c0 -0.06 -0.12 -0.06 -0.3 -0.06 l-1.32 0.06 c-0.18 0 -0.36 0 -0.36 0.06 s-0.06 0.06 -0.18 0.06 l-0.12 0 l0.18 0.12 l0.36 0.06 l0.84 -0.12 l0.24 0.06 c0.06 0.06 0.12 0.06 0.24 0.06 l0.24 0 z M21.54 9.600000000000001 l0.06 -0.12 l-0.06 0 l-0.12 0.06 s0 0.06 0.12 0.06 z M25.74 10.259999999999998 c0.12 0 0.12 -0.06 0.12 -0.12 s0.06 -0.06 0.12 -0.12 c0.06 0 0.18 -0.06 0.3 -0.18 c0.06 -0.06 0.3 -0.18 0.42 -0.18 l0.24 -0.06 l-0.3 -0.06 c-0.18 0 -0.3 -0.12 -0.3 -0.18 s0.12 -0.06 0.18 -0.06 l0.06 0 l0 -0.12 c0 -0.06 -0.06 -0.12 -0.12 -0.12 c0 0.06 -0.06 0.06 -0.06 0.06 l-0.48 0.18 c-0.18 0.06 -0.3 0.12 -0.3 0.18 l0.06 0.06 l0.3 -0.12 l0.06 0.06 c0 0.12 -0.06 0.18 -0.12 0.18 c-0.36 0.18 -0.48 0.18 -0.48 0.24 l0.12 0.06 c0.06 0 0.12 0.06 0.12 0.12 l0 0.06 c0 0.06 0 0.12 0.06 0.12 z M35.64 8.579999999999998 l-0.06 0 l-0.12 -0.06 c0 -0.06 0.12 -0.12 0.18 -0.12 c0.12 0 0.18 0.06 0.18 0.06 c0 0.06 -0.06 0.12 -0.18 0.12 z M28.5 9.899999999999999 c0.12 -0.06 0.18 -0.12 0.18 -0.18 l-0.06 -0.06 l-0.18 0.06 c-0.06 0 -0.12 0 -0.12 -0.06 s0.06 -0.18 0.18 -0.3 l0.06 -0.12 c0 -0.06 0 -0.06 -0.12 -0.06 l-0.36 0.06 l-0.36 -0.12 l-0.12 -0.06 l0.06 0.24 c0 0.06 -0.06 0.06 -0.18 0.12 l-0.18 0 l0.18 0.12 c0.12 0.12 0.36 0.18 0.54 0.18 l0.3 0.12 c0 0.06 0.12 0.06 0.18 0.06 z M30.42 8.939999999999998 l0.06 -0.06 c0 -0.06 -0.06 -0.06 -0.06 -0.06 c-0.06 0 -0.06 0.06 -0.06 0.06 l0 0.06 l0.06 0 z M38.52 8.280000000000001 l0.06 -0.06 l0 -0.06 l-0.06 0 c-0.06 0 -0.06 0 -0.06 0.06 z M29.34 9 l0.6 -0.06 l-0.18 -0.06 l-0.12 0.06 l-0.24 0 z M24.48 9.659999999999997 c0.06 0 0.12 -0.06 0.12 -0.12 l-0.06 -0.12 c-0.06 0 -0.12 0.06 -0.12 0.12 l0 0.06 s0 0.06 0.06 0.06 z M31.98 9.119999999999997 c0.06 0 0.18 -0.06 0.18 -0.12 l0 -0.06 c0 -0.06 0 -0.06 -0.06 -0.06 c-0.12 0.06 -0.24 0.12 -0.24 0.18 l0 0.06 l0.12 0 z M36.6 8.64 c-0.06 0 -0.06 0 -0.06 -0.06 l0.06 -0.06 l0.12 0.06 s0 0.06 -0.12 0.06 z M31.44 9.299999999999997 l0.24 -0.12 c0 -0.06 -0.12 -0.12 -0.3 -0.12 c-0.12 0 -0.24 0.06 -0.24 0.12 s0.12 0.12 0.3 0.12 z M34.92 9 c-0.48 0 -0.78 0 -0.78 -0.06 s0.3 -0.12 0.72 -0.18 c0.42 0 0.78 0 0.78 0.06 s-0.36 0.12 -0.72 0.18 z M27.18 9.600000000000001 c0 -0.06 0 -0.12 -0.06 -0.12 l0 -0.06 c-0.06 0 -0.06 0.06 -0.06 0.12 s0.06 0.06 0.06 0.06 l0.06 0 z M23.58 10.020000000000003 l0.3 -0.06 c0.12 -0.06 0.12 -0.12 0.12 -0.18 s0 -0.06 -0.12 -0.06 l-0.12 0 c-0.18 0.06 -0.3 0.12 -0.3 0.18 c0.06 0.12 0.06 0.12 0.12 0.12 z M30.48 9.479999999999997 l0.06 -0.06 l0 -0.06 c0 -0.06 -0.06 -0.12 -0.12 -0.12 s-0.06 0.06 -0.06 0.12 s0.06 0.12 0.12 0.12 z M29.22 9.659999999999997 c0.12 0 0.12 -0.06 0.12 -0.12 s-0.18 -0.12 -0.36 -0.12 c-0.06 0 -0.12 0 -0.12 0.06 l-0.06 0 l0.18 0.12 z M7.44 11.46 l0 -0.06 c0.06 -0.06 0.18 -0.12 0.3 -0.12 l0.18 -0.06 c0 0.06 -0.06 0.06 -0.12 0.12 c-0.18 0.12 -0.3 0.12 -0.36 0.12 z M22.26 10.979999999999997 c0.06 0 0.18 -0.06 0.3 -0.18 c0.06 -0.06 0.18 -0.12 0.3 -0.12 l0.12 0 l0.36 -0.12 l0.12 -0.18 c0 -0.06 0 -0.12 -0.12 -0.18 c-0.06 -0.12 -0.18 -0.18 -0.3 -0.18 l-0.06 0 c-0.18 0 -0.24 0.06 -0.24 0.12 c0 0 0.06 0.06 0.24 0.06 s0.3 0 0.36 0.06 l0.06 0.06 l-0.06 0.06 l-0.12 -0.06 c-0.06 0 -0.18 0 -0.18 0.06 l0 0.06 l-0.18 0 c-0.24 0 -1.02 0.24 -1.02 0.36 s0.24 0.18 0.42 0.18 z M22.38 10.259999999999998 c0.12 0 0.18 -0.06 0.18 -0.06 l0 -0.06 c0 -0.06 0 -0.06 -0.06 -0.06 l-0.12 0 l-0.24 0.12 c0 0.06 0.12 0.06 0.24 0.06 z M25.98 9.96 c-0.06 0 -0.06 -0.06 -0.06 -0.06 c0 -0.06 0 -0.06 0.06 -0.06 l0.06 0 l0 0.06 z M29.88 9.600000000000001 l0 -0.06 l-0.18 0 c0 0.06 0 0.06 0.06 0.06 l0.12 0 z M17.82 10.619999999999997 l0.12 -0.06 l-0.06 -0.06 l-0.12 0.06 l-0.06 0.06 l0.12 0 z M21.66 10.5 l0.24 -0.12 c0 -0.06 0 -0.06 -0.06 -0.06 l-0.12 0 c-0.12 0 -0.24 0.06 -0.24 0.12 s0.06 0.06 0.18 0.06 z M27 10.079999999999998 c0.06 0 0.12 -0.06 0.12 -0.12 l-0.06 -0.12 c-0.06 0 -0.06 0.06 -0.12 0.12 l0 0.06 s0 0.06 0.06 0.06 z M24.6 10.259999999999998 l0.06 -0.12 l-0.12 -0.06 l0 0.06 c0 0.12 0 0.12 0.06 0.12 z M23.76 10.439999999999998 c0.06 0 0.12 -0.06 0.12 -0.12 l-0.12 -0.06 c-0.12 0 -0.12 0.06 -0.12 0.06 c0 0.06 0.06 0.12 0.12 0.12 z M24.24 10.380000000000003 c0.06 0 0.06 0 0.06 -0.06 s-0.06 -0.12 -0.12 -0.12 s-0.06 0.06 -0.06 0.12 z M6.96 11.759999999999998 l0.12 -0.06 l-0.12 -0.06 s-0.06 0 -0.06 0.06 z M27.6 10.14 l0.06 -0.06 c0 -0.06 -0.06 -0.06 -0.12 -0.12 l-0.06 0 l0 0.06 c0 0.06 0.06 0.12 0.12 0.12 z M20.94 10.68 l0.06 -0.06 c0 -0.06 -0.06 -0.06 -0.06 -0.06 c-0.06 0 -0.06 0.06 -0.06 0.06 l0 0.06 l0.06 0 z M19.44 11.100000000000001 l0.18 -0.06 l0.96 -0.3 l-0.12 0 c-0.42 0 -1.08 0.18 -1.08 0.3 z M23.58 10.86 c0.06 0 0.12 -0.06 0.18 -0.18 c0 -0.06 -0.06 -0.12 -0.18 -0.12 c-0.06 0 -0.12 0.06 -0.12 0.12 l0 0.06 c0 0.06 0.06 0.12 0.12 0.12 z M21.6 10.86 c0.12 -0.06 0.12 -0.06 0.12 -0.12 l-0.12 0 s-0.06 0 -0.06 0.06 z M18.48 11.399999999999999 c0.12 0 0.24 -0.06 0.36 -0.18 l0.06 -0.06 l-0.24 0 c-0.18 0.06 -0.3 0.12 -0.3 0.18 z M22.98 11.04 c0.12 0 0.24 -0.06 0.3 -0.12 l0 -0.06 l-0.12 -0.06 l-0.3 0.12 l-0.06 0.12 l0.18 0 z M19.8 11.46 c0.12 -0.06 0.18 -0.12 0.18 -0.18 s-0.06 -0.06 -0.06 -0.06 l-0.06 0 c-0.06 0 -0.18 0.06 -0.18 0.18 l0 0.06 l0.12 0 z M26.52 10.920000000000002 l0.06 -0.06 c0.24 -0.12 0.66 -0.24 0.84 -0.24 l0.12 0 l0 0.06 l-0.06 0.06 z M16.86 11.880000000000003 c0.06 0 0.24 0 0.42 -0.06 c0.12 -0.06 0.36 -0.12 0.54 -0.12 l0.12 0 c0.06 0 0.12 0 0.12 0.06 l0.06 0.06 l0.18 -0.12 l-0.12 -0.06 c-0.06 0 -0.06 -0.06 -0.06 -0.12 s0 -0.06 -0.06 -0.06 l-0.3 0.06 c-0.24 0 -0.54 0.06 -0.78 0.18 l-0.24 0.06 c0 0.06 0.06 0.06 0.12 0.12 z M20.7 11.759999999999998 c0.06 0 0.12 -0.06 0.12 -0.12 l0.06 -0.06 l-0.06 -0.06 z M15.54 12.240000000000002 c0.12 0 0.18 0 0.18 -0.06 s0.06 -0.06 0.18 -0.06 l0.12 0 c0.12 0 0.3 -0.06 0.3 -0.12 s-0.12 -0.06 -0.24 -0.06 c-0.42 0.06 -0.78 0.18 -0.78 0.24 s0.06 0.06 0.24 0.06 z M25.02 11.280000000000001 l-0.18 0 l0.06 -0.06 l0.24 0 z M24.72 11.399999999999999 c-0.06 0 -0.12 0 -0.12 -0.06 l0.06 -0.12 c0.06 0.06 0.06 0.12 0.06 0.18 z M19.5 12 c0.3 0 0.84 -0.06 0.96 -0.18 l0 -0.06 c0 -0.06 -0.18 -0.12 -0.3 -0.12 l-0.12 0 c-0.6 0.18 -0.78 0.24 -0.78 0.3 l0.06 0.06 l0.18 0 z M22.38 12 l-0.12 -0.06 c0 -0.12 0.6 -0.36 0.9 -0.36 l0.18 0 c0.06 0 0.06 0 0.06 -0.06 s0.06 -0.06 0.12 -0.06 l0.06 0 c0.06 0 0.24 0 0.36 -0.06 c0.06 -0.06 0.12 -0.06 0.18 -0.06 l0.24 0 l0.06 0.06 c0 0.06 -0.12 0.06 -0.42 0.12 s-0.6 0.18 -0.66 0.24 l-0.18 0.06 l-0.06 0 l-0.48 0.06 z M22.02 12.060000000000002 l-0.18 0 c0 -0.06 0.06 -0.12 0.18 -0.12 l0.12 -0.06 l0.06 0.06 c0 0.06 -0.12 0.12 -0.18 0.12 z M21.36 12.240000000000002 l-0.12 0 l0.06 -0.12 c0.06 -0.06 0.18 -0.12 0.3 -0.12 c0.06 0 0.06 0 0.06 0.06 l0 0.06 c0 0.06 -0.18 0.12 -0.3 0.12 z M17.82 12.600000000000001 l0.12 -0.06 c0.06 -0.06 0.12 -0.06 0.12 -0.12 c-0.06 0 -0.12 0 -0.18 0.06 z M17.04 12.780000000000001 l0.24 -0.06 l-0.48 0 l0 0.06 l0.24 0 z M19.38 12.780000000000001 l0 -0.06 c0.12 -0.06 0.36 -0.18 0.66 -0.18 l0.24 -0.06 l0.06 0 l-0.06 0.06 c-0.18 0.12 -0.72 0.24 -0.9 0.24 z M16.32 12.96 l0.18 -0.06 l-0.24 -0.12 l-0.06 0.06 c-0.06 0 -0.06 0 -0.06 0.06 s0.06 0.06 0.18 0.06 z M15.42 13.259999999999998 c0.24 -0.06 0.42 -0.12 0.42 -0.18 l0.06 -0.06 l-0.12 0 l-0.42 0.12 l-0.18 0.12 l0.24 0 z M19.02 12.899999999999999 c0 0 -0.06 0 -0.06 -0.06 s0 -0.06 0.06 -0.06 l0.06 0.06 z M18.72 12.96 l-0.06 0 l0 -0.06 l0.18 0 s0 0.06 -0.12 0.06 z M17.58 13.259999999999998 l-0.06 0 c0 -0.06 0.12 -0.12 0.3 -0.12 c0.06 -0.06 0.12 -0.06 0.18 -0.06 l0 0.06 c-0.06 0.06 -0.3 0.12 -0.42 0.12 z M7.32 16.439999999999998 l0 -0.06 l-0.12 0 l0 0.06 l0.12 0 z M4.8 17.28 c0.12 0 0.12 -0.06 0.12 -0.06 l-0.18 0 c0 0.06 0 0.06 0.06 0.06 z M11.1 26.880000000000003 l0.18 -0.54 l0.06 -0.12 l0 0.12 l-0.12 0.36 z M10.92 27.840000000000003 l0 -0.12 c0 -0.06 0.06 -0.12 0.12 -0.18 l0.06 0.06 l-0.06 0.06 c-0.06 0.12 -0.06 0.18 -0.12 0.18 z M10.92 28.14 l-0.12 -0.06 l0.06 -0.12 l0.06 0 l0 0.18 z M10.8 28.44 l-0.06 -0.06 c0 -0.06 0 -0.06 0.06 -0.06 l0.06 0.06 z M9.9 32.22 l-0.12 -0.06 l0.06 -0.12 l0.06 0 l0 0.18 z M9.66 33 l-0.06 -0.06 c0 -0.06 0 -0.24 0.06 -0.36 l0.12 -0.18 l0 0.24 c-0.06 0.24 -0.06 0.36 -0.12 0.36 z M20.94 33.3 l-0.12 0 l0.06 -0.06 c0.12 -0.12 0.18 -0.12 0.24 -0.12 s0.06 0 0.06 0.06 z M9.24 34.379999999999995 l-0.06 -0.06 c0 -0.06 0.06 -0.12 0.12 -0.18 l0.12 0 c0 0.06 -0.06 0.18 -0.12 0.18 z M19.32 33.66 l-0.18 0 l0.06 -0.06 c0.12 -0.12 0.24 -0.12 0.3 -0.18 l0.12 0.06 l0 0.06 c-0.06 0.06 -0.18 0.12 -0.3 0.12 z M17.16 33.72 l-0.12 0 c-0.06 0 -0.06 0 -0.06 -0.06 l0.18 0 l0 0.06 z M18.54 33.84 c-0.06 0 -0.06 0 -0.06 -0.06 l0 -0.06 c0.06 -0.06 0.18 -0.12 0.3 -0.12 l0.18 0 l-0.06 0.12 z M21.6 33.66 c0.06 0 0.12 0 0.12 -0.06 s-0.06 -0.12 -0.12 -0.12 s-0.12 0.06 -0.12 0.12 l0.06 0.06 l0.06 0 z M9.18 34.92 l-0.06 -0.06 c0 -0.06 0.06 -0.18 0.12 -0.18 c0 -0.06 0.06 -0.06 0.06 -0.06 c0 0.06 0.06 0.06 0.06 0.06 c0 0.06 -0.06 0.18 -0.12 0.18 z M14.58 34.5 l-0.12 -0.12 c0 -0.06 -0.06 -0.06 -0.06 -0.06 l0.12 0 c0.06 0.06 0.12 0.06 0.12 0.12 z M13.62 34.68 l-0.06 -0.06 c0 -0.06 0.06 -0.06 0.06 -0.06 l0.12 0.06 s0 0.06 -0.12 0.06 z M12.9 34.8 l-0.12 0 l0.06 -0.06 l0.24 0 c0 0.06 -0.06 0.06 -0.18 0.06 z M10.68 35.519999999999996 c0.06 0 0.12 0 0.12 -0.12 l0.06 -0.06 l-0.06 0 l-0.12 0.12 l0 0.06 z M24 34.620000000000005 l-0.06 -0.06 c0 -0.06 -0.06 -0.12 -0.12 -0.12 l-0.36 0.12 l-0.12 -0.06 c0 -0.06 0.12 -0.12 0.36 -0.12 l0.18 0 c0.18 0 0.3 0 0.3 0.06 z M21.78 34.86 l0.12 -0.06 c0 -0.06 -0.06 -0.06 -0.18 -0.12 l-0.12 0 l0 0.06 c0 0.06 0.06 0.12 0.18 0.12 z M21.84 35.22 c0.18 0 0.42 0 0.54 -0.12 l0.06 -0.06 c0 -0.06 -0.06 -0.06 -0.18 -0.06 l-0.24 0 c-0.06 0 -0.12 0 -0.12 0.06 c-0.06 0.06 -0.18 0.06 -0.18 0.06 l-0.06 0 l-0.12 0.06 c0 0.06 0.12 0.06 0.3 0.06 z M23.64 34.980000000000004 l-0.3 0 c0.06 -0.06 0.42 -0.18 0.6 -0.18 c0.06 0 0.06 0 0.06 0.06 s-0.18 0.12 -0.36 0.12 z M23.1 35.04 c-0.12 0 -0.12 0 -0.12 -0.06 l0.12 -0.06 l0.06 0.06 s0 0.06 -0.06 0.06 z M21.18 35.4 l-0.06 -0.06 l-0.12 0 l0 0.06 l0.18 0 z M21.42 36 l-0.12 0 l0.3 -0.24 l0 -0.06 c0.06 0 0.06 0.06 0.06 0.12 c0 0.12 -0.06 0.18 -0.24 0.18 z M18.06 37.019999999999996 c0.12 0 0.18 -0.06 0.18 -0.18 c0 -0.06 0.06 -0.12 0.18 -0.12 s0.3 -0.06 0.36 -0.12 l0.72 -0.36 c0.24 -0.06 0.36 -0.12 0.36 -0.18 l-0.12 0 c-0.48 0.06 -1.2 0.24 -1.2 0.3 l0.06 0.06 c0 0.06 0 0.06 -0.12 0.06 c-0.18 0 -0.24 -0.06 -0.3 -0.12 l-0.06 -0.06 l-0.24 0.06 c-0.24 0.06 -0.42 0.18 -0.42 0.24 l0.06 0.06 l0.36 -0.12 l0.12 0.06 l-0.06 0.18 c0 0.18 0 0.24 0.12 0.24 z M20.1 36.42 c0.06 0 0.12 -0.06 0.12 -0.12 c0 0 -0.06 -0.06 -0.18 -0.06 c-0.06 0 -0.12 0.06 -0.12 0.12 s0.06 0.06 0.12 0.06 l0.06 0 z M19.44 36.6 l0 -0.18 l-0.12 0.06 c0.06 0.12 0.06 0.12 0.12 0.12 z M19.2 36.6 l0 -0.06 l-0.06 0 c-0.06 0 -0.12 0 -0.12 0.06 l0.18 0 z M21 36.66 l-0.24 0 l0.18 -0.06 l0.06 0 l0 0.06 z M16.74 37.2 l0.06 -0.06 l-0.06 -0.12 c0 -0.06 0 -0.06 -0.06 -0.06 l0 0.12 z M17.22 37.08 c0.18 0 0.36 -0.06 0.36 -0.12 l-0.06 -0.06 l-0.24 0.06 c-0.24 0.06 -0.36 0.06 -0.36 0.12 l0.3 0 z M18.6 37.08 c0.06 0 0.12 -0.06 0.18 -0.12 l0 -0.06 l-0.12 0.06 l-0.18 0.12 l0.12 0 z M15.48 37.379999999999995 c0.06 0 0.06 -0.06 0.06 -0.12 l-0.12 0 l-0.06 0.06 s0 0.06 0.12 0.06 z M16.26 37.5 c0.06 0 0.12 0 0.12 -0.06 l-0.18 -0.06 l-0.12 0 l0 0.06 z M15.12 37.56 c0.18 0 0.24 0 0.24 -0.06 l-0.24 0 c-0.06 0 -0.12 0 -0.18 0.06 l0.18 0 z M14.52 37.739999999999995 l0 -0.06 l-0.12 0 l0 0.06 l0.12 0 z M17.82 37.86 l0.24 -0.12 c0.24 -0.12 0.48 -0.18 0.72 -0.24 c0.12 0 0.3 0 0.3 0.06 l-0.06 0.06 c-0.06 0.06 -0.36 0.12 -0.72 0.18 z M16.32 38.16 c0.06 0 0.12 -0.12 0.12 -0.12 c0 -0.06 -0.06 -0.12 -0.12 -0.12 s-0.12 0.06 -0.12 0.18 l0.06 0.06 l0.06 0 z M7.68 41.760000000000005 l0 -0.18 l0.12 0.12 z M6.54 42.120000000000005 c0.06 0 0.12 -0.12 0.12 -0.18 l-0.06 -0.12 l-0.06 0 c-0.06 0 -0.12 0.06 -0.12 0.12 c0 0.12 0.06 0.18 0.12 0.18 z M7.68 42 l-0.06 0 l0 -0.06 l0.12 0 z M7.56 42.42 l-0.06 0 l0.06 -0.06 c0 -0.06 0.06 -0.12 0.12 -0.12 l0 0.06 z M7.14 43.86 c0.06 0 0.12 -0.06 0.12 -0.12 l-0.06 -0.12 l-0.12 0.12 c0 0.06 0 0.12 0.06 0.12 z M7.14 44.88 l0 -0.12 c0 -0.12 0 -0.3 0.06 -0.42 c0 0 0.06 0 0.06 -0.06 l0 0.24 c-0.06 0.24 -0.06 0.36 -0.12 0.36 z M7.02 45.96 c-0.06 0 -0.12 -0.18 -0.12 -0.36 c0.06 -0.24 0.12 -0.48 0.18 -0.54 c0.06 0 0.06 0.06 0.06 0.24 c-0.06 0.42 0 0.66 -0.12 0.66 z M5.88 46.68 l0.06 -0.12 l-0.12 -0.06 l0 0.12 c0 0.06 0 0.06 0.06 0.06 z M6.6 47.22 c0.06 0 0.12 -0.06 0.12 -0.24 l0 -0.12 c0 -0.12 0 -0.18 -0.06 -0.18 l-0.12 0.12 c-0.06 0.12 -0.06 0.24 -0.06 0.36 z M6.54 47.64 l0 -0.12 l-0.06 0 s-0.06 0 -0.06 0.06 z M6.06 52.14 l0 -0.48 c0.06 -0.48 0.12 -0.9 0.24 -0.96 l0 0.06 c0 0.3 -0.12 1.26 -0.24 1.38 z M1.62 52.62 l0 -0.18 l-0.06 0 l0 0.06 c0 0.12 0 0.12 0.06 0.12 z M4.56 55.32 l0.12 -0.18 c-0.06 0 -0.12 0 -0.12 0.06 l-0.06 0.06 z"></path></g><g id="SvgjsG3763" featureKey="nameFeature-0" transform="matrix(1.352489800369779,0,0,1.352489800369779,108.91632329385195,15.770127554901794)" fill="#111111"><path d="M2.28 15.52 l18.2 0 l0 5.56 l-12.2 0 l0 3.92 l9.8 0 l0 5.56 l-9.8 0 l0 9.44 l-6 0 l0 -24.48 z M29.6 30 c0 2.96 1.48 4.64 4.48 4.64 c0.84 0 1.6 -0.12 2.2 -0.4 c1.12 -0.44 1.88 -1.28 2.28 -2.44 c0.16 -0.56 0.24 -1.16 0.24 -1.8 s-0.08 -1.24 -0.24 -1.8 c-0.44 -1.24 -1.12 -1.92 -2.28 -2.48 c-0.6 -0.24 -1.36 -0.36 -2.2 -0.36 c-3 0 -4.48 1.68 -4.48 4.64 z M23.6 12 l6 0 l0 10 c1.36 -1.56 3.2 -2.2 5.24 -2.2 c5.84 0 9.96 4.68 9.96 10.28 c0 6.32 -4.68 10.12 -10.64 10.12 c-6.2 0 -10.56 -4.08 -10.56 -10.2 l0 -18 z M71.84 35.04 l-9 0 l-1.76 4.96 l-6.52 0 l9.8 -24.48 l6 0 l9.8 24.48 l-6.56 0 z M64.80000000000001 29.48 l5.08 0 l-2.52 -7.12 z M95.6 30 c0 -3 -1.48 -4.64 -4.52 -4.64 c-0.84 0 -1.56 0.12 -2.16 0.36 c-1.12 0.52 -1.88 1.28 -2.24 2.48 c-0.2 0.56 -0.28 1.16 -0.28 1.8 s0.08 1.24 0.28 1.8 c0.32 1.16 1.16 2 2.24 2.44 c0.6 0.28 1.32 0.4 2.16 0.4 c3.04 0 4.52 -1.64 4.52 -4.64 z M95.6 22 l0 -10 l6 0 l0 18 c0 6.36 -4.52 10.2 -10.56 10.2 c-6.16 0 -10.64 -4 -10.64 -10.12 c0 -5.64 4.16 -10.28 9.84 -10.28 c2.12 0 3.96 0.6 5.36 2.2 z M113.47999999999999 39.4 l0 -5.64 c0.48 0.12 1.08 0.24 1.76 0.32 c0.68 0.12 1.4 0.2 2.16 0.24 s1.52 0.08 2.32 0.12 s1.56 0.08 2.24 0.08 c1.88 0 3.2 -0.12 4 -0.32 c0.76 -0.2 1.16 -0.56 1.16 -1.12 c0 -0.48 -0.36 -0.84 -0.72 -1.12 c-1.32 -0.88 -2.88 -1.24 -4.44 -1.6 c-4.4 -0.88 -8.44 -2.64 -8.44 -7.68 c0 -5.96 5.64 -7.36 10.48 -7.36 c2.68 0 5.4 0.28 8 0.92 l0 5.64 c-0.4 -0.12 -0.92 -0.2 -1.56 -0.32 c-0.68 -0.08 -1.36 -0.16 -2.12 -0.24 c-1.56 -0.16 -3.04 -0.24 -4.6 -0.24 c-0.88 0 -2.72 0 -3.56 0.32 c-0.56 0.2 -0.92 0.44 -0.92 1.08 c0 0.32 0.08 0.6 0.24 0.84 c0.16 0.28 0.44 0.48 0.8 0.68 c1.08 0.6 2.48 0.96 3.68 1.24 c1 0.24 2 0.52 3.04 0.8 c3.52 0.96 5.84 2.92 5.84 6.68 c0 6.2 -6.16 7.52 -11.12 7.52 c-2.72 0 -5.56 -0.2 -8.24 -0.84 z M145.32 34.64 c2.92 0 4.6 -1.72 4.6 -4.64 s-1.68 -4.64 -4.6 -4.64 s-4.6 1.72 -4.6 4.64 s1.68 4.64 4.6 4.64 z M145.32 40.2 c-6.16 0 -10.6 -4.08 -10.6 -10.2 c0 -6.32 4.6 -10.2 10.6 -10.2 c6.2 0 10.6 4.08 10.6 10.2 c0 6.28 -4.64 10.2 -10.6 10.2 z M164.76 30 l0 10 l-6 0 l0 -9.96 c0 -6.64 4.88 -10.24 11.04 -10.24 c0.2 0 0.48 0 0.76 0.04 s0.6 0.12 0.88 0.16 l0 5.8 c-0.2 -0.04 -0.44 -0.08 -0.72 -0.12 s-0.52 -0.08 -0.72 -0.08 c-1 0 -1.8 0.12 -2.48 0.32 c-1.12 0.4 -2.12 1.16 -2.48 2.36 c-0.2 0.52 -0.28 1.12 -0.28 1.72 z M185.12 20.68 l0 5.56 l-5.6 0 l0 3.76 c0 3.08 2.04 4.64 5 4.64 c0.36 0 0.68 -0.04 0.96 -0.08 s0.52 -0.08 0.8 -0.12 l0 5.56 c-0.36 0.04 -0.64 0.12 -0.84 0.16 c-0.24 0.04 -0.64 0.04 -1.16 0.04 c-6.04 0 -10.76 -4.12 -10.76 -10.2 l0 -14.8 l6 0 l0 5.48 l5.6 0 z M193.96 27.6 c0.6 0.2 1.28 0.36 2 0.44 c0.72 0.12 1.4 0.16 2.04 0.16 c0.8 0 2.84 -0.16 2.84 -1.32 c0 -1.24 -1.76 -1.28 -2.64 -1.28 c-1.76 0 -3.28 0.4 -4.24 2 z M205.28 33.76 l0 5.6 c-2.24 0.52 -4.48 0.88 -6.8 0.88 c-6.36 0 -11.08 -3.72 -11.08 -10.16 c0 -6.36 4.56 -10.28 10.6 -10.28 c4.12 0 8.88 1.96 8.88 6.64 c0 4.64 -5.04 6.36 -8.92 6.36 c-1.48 0 -2.96 -0.4 -4.32 -0.96 c0.8 2.24 3.2 2.6 5.28 2.6 c1.08 0 2.16 -0.04 3.24 -0.2 c1 -0.08 2.16 -0.2 3.12 -0.48 z M215.84 30 l0 10 l-6 0 l0 -9.96 c0 -6.64 4.88 -10.24 11.04 -10.24 c0.2 0 0.48 0 0.76 0.04 s0.6 0.12 0.88 0.16 l0 5.8 c-0.2 -0.04 -0.44 -0.08 -0.72 -0.12 s-0.52 -0.08 -0.72 -0.08 c-1 0 -1.8 0.12 -2.48 0.32 c-1.12 0.4 -2.12 1.16 -2.48 2.36 c-0.2 0.52 -0.28 1.12 -0.28 1.72 z"></path></g>
  </g>
</svg>